<mxfile host="Electron" modified="2024-12-02T16:38:23.783Z" agent="Mozilla/5.0 (Windows NT 10.0; Win64; x64) AppleWebKit/537.36 (KHTML, like Gecko) draw.io/21.3.7 Chrome/112.0.5615.204 Electron/24.5.0 Safari/537.36" etag="PXgYiHdILyAqPklWVFP6" version="21.3.7" type="device">
  <diagram name="PÃ¡gina-1" id="iNlLbiiQIxhVp6qXynH9">
    <mxGraphModel dx="1437" dy="843" grid="1" gridSize="10" guides="1" tooltips="1" connect="1" arrows="1" fold="1" page="1" pageScale="1" pageWidth="700" pageHeight="500" math="0" shadow="0">
      <root>
        <mxCell id="0" />
        <mxCell id="1" parent="0" />
        <mxCell id="749NMIYykoAvZRzDqlqD-6" style="rounded=0;orthogonalLoop=1;jettySize=auto;html=1;exitX=0;exitY=0.5;exitDx=0;exitDy=0;exitPerimeter=0;entryX=0;entryY=0.5;entryDx=0;entryDy=0;entryPerimeter=0;endArrow=none;endFill=0;strokeWidth=3;" parent="1" source="749NMIYykoAvZRzDqlqD-47" target="749NMIYykoAvZRzDqlqD-2" edge="1">
          <mxGeometry relative="1" as="geometry">
            <mxPoint x="318.3553390593273" y="157.64466094067262" as="sourcePoint" />
            <Array as="points">
              <mxPoint x="363" y="115" />
            </Array>
          </mxGeometry>
        </mxCell>
        <mxCell id="749NMIYykoAvZRzDqlqD-2" value="" style="pointerEvents=1;verticalLabelPosition=bottom;shadow=0;dashed=0;align=center;html=1;verticalAlign=top;shape=mxgraph.electrical.resistors.memristor_2;rotation=45;strokeWidth=3;" parent="1" vertex="1">
          <mxGeometry x="393" y="181" width="100" height="24" as="geometry" />
        </mxCell>
        <mxCell id="749NMIYykoAvZRzDqlqD-8" style="rounded=0;orthogonalLoop=1;jettySize=auto;html=1;exitX=1;exitY=0.5;exitDx=0;exitDy=0;exitPerimeter=0;entryX=1;entryY=0.5;entryDx=0;entryDy=0;entryPerimeter=0;endArrow=none;endFill=0;strokeWidth=3;" parent="1" source="749NMIYykoAvZRzDqlqD-44" target="749NMIYykoAvZRzDqlqD-46" edge="1">
          <mxGeometry relative="1" as="geometry">
            <mxPoint x="318.35533905932743" y="390.3553390593273" as="sourcePoint" />
            <mxPoint x="407.6446609406727" y="390.3553390593273" as="targetPoint" />
            <Array as="points">
              <mxPoint x="363" y="435" />
            </Array>
          </mxGeometry>
        </mxCell>
        <mxCell id="749NMIYykoAvZRzDqlqD-9" style="rounded=0;orthogonalLoop=1;jettySize=auto;html=1;exitX=0;exitY=0.5;exitDx=0;exitDy=0;exitPerimeter=0;entryX=1;entryY=0.5;entryDx=0;entryDy=0;entryPerimeter=0;endArrow=none;endFill=0;strokeWidth=3;" parent="1" source="749NMIYykoAvZRzDqlqD-46" target="749NMIYykoAvZRzDqlqD-2" edge="1">
          <mxGeometry relative="1" as="geometry">
            <mxPoint x="478.3553390593273" y="319.6446609406727" as="sourcePoint" />
            <mxPoint x="418" y="400" as="targetPoint" />
            <Array as="points">
              <mxPoint x="523" y="275" />
            </Array>
          </mxGeometry>
        </mxCell>
        <mxCell id="749NMIYykoAvZRzDqlqD-10" style="rounded=0;orthogonalLoop=1;jettySize=auto;html=1;exitX=0;exitY=0.5;exitDx=0;exitDy=0;exitPerimeter=0;entryX=1;entryY=0.5;entryDx=0;entryDy=0;entryPerimeter=0;endArrow=none;endFill=0;strokeWidth=3;" parent="1" source="749NMIYykoAvZRzDqlqD-44" target="749NMIYykoAvZRzDqlqD-47" edge="1">
          <mxGeometry relative="1" as="geometry">
            <mxPoint x="247.64466094067257" y="319.6446609406727" as="sourcePoint" />
            <mxPoint x="247.64466094067268" y="228.35533905932738" as="targetPoint" />
            <Array as="points">
              <mxPoint x="203" y="275" />
            </Array>
          </mxGeometry>
        </mxCell>
        <mxCell id="749NMIYykoAvZRzDqlqD-15" style="edgeStyle=orthogonalEdgeStyle;rounded=0;orthogonalLoop=1;jettySize=auto;html=1;exitX=1;exitY=0.5;exitDx=0;exitDy=0;endArrow=none;endFill=0;exitPerimeter=0;strokeWidth=3;" parent="1" source="749NMIYykoAvZRzDqlqD-26" edge="1">
          <mxGeometry relative="1" as="geometry">
            <mxPoint x="363" y="115" as="targetPoint" />
            <Array as="points">
              <mxPoint x="92" y="115" />
            </Array>
          </mxGeometry>
        </mxCell>
        <mxCell id="749NMIYykoAvZRzDqlqD-16" style="edgeStyle=orthogonalEdgeStyle;rounded=0;orthogonalLoop=1;jettySize=auto;html=1;exitX=0;exitY=0.5;exitDx=0;exitDy=0;endArrow=none;endFill=0;exitPerimeter=0;strokeWidth=3;" parent="1" source="749NMIYykoAvZRzDqlqD-26" edge="1">
          <mxGeometry relative="1" as="geometry">
            <mxPoint x="362" y="435" as="targetPoint" />
            <mxPoint x="104" y="435" as="sourcePoint" />
            <Array as="points">
              <mxPoint x="92" y="435" />
            </Array>
          </mxGeometry>
        </mxCell>
        <mxCell id="749NMIYykoAvZRzDqlqD-23" style="edgeStyle=orthogonalEdgeStyle;rounded=0;orthogonalLoop=1;jettySize=auto;html=1;exitX=0;exitY=0.5;exitDx=0;exitDy=0;endArrow=none;endFill=0;strokeWidth=3;" parent="1" source="749NMIYykoAvZRzDqlqD-21" edge="1">
          <mxGeometry relative="1" as="geometry">
            <mxPoint x="203" y="275" as="targetPoint" />
          </mxGeometry>
        </mxCell>
        <mxCell id="749NMIYykoAvZRzDqlqD-21" value="" style="ellipse;whiteSpace=wrap;html=1;aspect=fixed;strokeWidth=3;" parent="1" vertex="1">
          <mxGeometry x="593" y="65" width="24" height="24" as="geometry" />
        </mxCell>
        <mxCell id="749NMIYykoAvZRzDqlqD-25" style="edgeStyle=orthogonalEdgeStyle;rounded=0;orthogonalLoop=1;jettySize=auto;html=1;exitX=0;exitY=0.5;exitDx=0;exitDy=0;endArrow=none;endFill=0;strokeWidth=3;" parent="1" source="749NMIYykoAvZRzDqlqD-24" edge="1">
          <mxGeometry relative="1" as="geometry">
            <mxPoint x="524" y="275" as="targetPoint" />
          </mxGeometry>
        </mxCell>
        <mxCell id="749NMIYykoAvZRzDqlqD-24" value="" style="ellipse;whiteSpace=wrap;html=1;aspect=fixed;strokeWidth=3;" parent="1" vertex="1">
          <mxGeometry x="594" y="263" width="24" height="24" as="geometry" />
        </mxCell>
        <mxCell id="749NMIYykoAvZRzDqlqD-26" value="" style="verticalLabelPosition=bottom;shadow=0;dashed=0;align=center;fillColor=strokeColor;html=1;verticalAlign=top;strokeWidth=3;shape=mxgraph.electrical.miscellaneous.monocell_battery;rotation=-90;" parent="1" vertex="1">
          <mxGeometry x="42" y="245" width="100" height="60" as="geometry" />
        </mxCell>
        <mxCell id="749NMIYykoAvZRzDqlqD-37" value="" style="endArrow=blockThin;html=1;rounded=0;strokeWidth=3;endFill=1;endSize=10;" parent="1" edge="1">
          <mxGeometry width="50" height="50" relative="1" as="geometry">
            <mxPoint x="605.58" y="255" as="sourcePoint" />
            <mxPoint x="605.58" y="95" as="targetPoint" />
          </mxGeometry>
        </mxCell>
        <mxCell id="749NMIYykoAvZRzDqlqD-39" value="&lt;span style=&quot;font-size: 20px;&quot;&gt;&lt;b style=&quot;font-size: 20px;&quot;&gt;R1&lt;/b&gt;&lt;/span&gt;" style="text;html=1;strokeColor=none;fillColor=none;align=center;verticalAlign=middle;whiteSpace=wrap;rounded=0;fontSize=20;" parent="1" vertex="1">
          <mxGeometry x="241" y="159" width="40" height="30" as="geometry" />
        </mxCell>
        <mxCell id="749NMIYykoAvZRzDqlqD-40" value="&lt;span style=&quot;font-size: 20px;&quot;&gt;&lt;b style=&quot;font-size: 20px;&quot;&gt;R2&lt;/b&gt;&lt;/span&gt;" style="text;html=1;strokeColor=none;fillColor=none;align=center;verticalAlign=middle;whiteSpace=wrap;rounded=0;fontSize=20;" parent="1" vertex="1">
          <mxGeometry x="241" y="365" width="40" height="30" as="geometry" />
        </mxCell>
        <mxCell id="749NMIYykoAvZRzDqlqD-41" value="&lt;span style=&quot;font-size: 20px;&quot;&gt;&lt;b style=&quot;font-size: 20px;&quot;&gt;R3&lt;/b&gt;&lt;/span&gt;" style="text;html=1;strokeColor=none;fillColor=none;align=center;verticalAlign=middle;whiteSpace=wrap;rounded=0;fontSize=20;" parent="1" vertex="1">
          <mxGeometry x="453" y="365" width="40" height="30" as="geometry" />
        </mxCell>
        <mxCell id="749NMIYykoAvZRzDqlqD-42" value="&lt;b&gt;V&lt;sub&gt;in&lt;/sub&gt;&lt;/b&gt;" style="text;html=1;strokeColor=none;fillColor=none;align=center;verticalAlign=middle;whiteSpace=wrap;rounded=0;fontSize=20;" parent="1" vertex="1">
          <mxGeometry x="102" y="225" width="40" height="48" as="geometry" />
        </mxCell>
        <mxCell id="749NMIYykoAvZRzDqlqD-43" value="&lt;b&gt;V&lt;span style=&quot;font-size: 16.6667px;&quot;&gt;&lt;sub&gt;out&lt;/sub&gt;&lt;/span&gt;&lt;/b&gt;" style="text;html=1;strokeColor=none;fillColor=none;align=center;verticalAlign=middle;whiteSpace=wrap;rounded=0;fontSize=20;" parent="1" vertex="1">
          <mxGeometry x="608" y="159" width="50" height="48" as="geometry" />
        </mxCell>
        <mxCell id="749NMIYykoAvZRzDqlqD-44" value="" style="pointerEvents=1;verticalLabelPosition=bottom;shadow=0;dashed=0;align=center;html=1;verticalAlign=top;shape=mxgraph.electrical.resistors.memristor_2;rotation=45;strokeWidth=3;" parent="1" vertex="1">
          <mxGeometry x="233" y="343" width="100" height="24" as="geometry" />
        </mxCell>
        <mxCell id="749NMIYykoAvZRzDqlqD-46" value="" style="pointerEvents=1;verticalLabelPosition=bottom;shadow=0;dashed=0;align=center;html=1;verticalAlign=top;shape=mxgraph.electrical.resistors.memristor_2;rotation=-225;strokeWidth=3;" parent="1" vertex="1">
          <mxGeometry x="393" y="343" width="100" height="24" as="geometry" />
        </mxCell>
        <mxCell id="749NMIYykoAvZRzDqlqD-47" value="" style="pointerEvents=1;verticalLabelPosition=bottom;shadow=0;dashed=0;align=center;html=1;verticalAlign=top;shape=mxgraph.electrical.resistors.memristor_2;rotation=-225;strokeWidth=3;" parent="1" vertex="1">
          <mxGeometry x="233" y="181" width="100" height="24" as="geometry" />
        </mxCell>
        <mxCell id="749NMIYykoAvZRzDqlqD-48" value="&lt;span style=&quot;font-size: 20px;&quot;&gt;&lt;b style=&quot;font-size: 20px;&quot;&gt;R4&lt;/b&gt;&lt;/span&gt;" style="text;html=1;strokeColor=none;fillColor=none;align=center;verticalAlign=middle;whiteSpace=wrap;rounded=0;fontSize=20;" parent="1" vertex="1">
          <mxGeometry x="453" y="159" width="40" height="30" as="geometry" />
        </mxCell>
        <mxCell id="749NMIYykoAvZRzDqlqD-49" style="rounded=0;orthogonalLoop=1;jettySize=auto;html=1;exitX=1;exitY=0.5;exitDx=0;exitDy=0;exitPerimeter=0;entryX=0;entryY=0.5;entryDx=0;entryDy=0;entryPerimeter=0;endArrow=none;endFill=0;strokeWidth=3;" parent="1" source="749NMIYykoAvZRzDqlqD-73" target="749NMIYykoAvZRzDqlqD-50" edge="1">
          <mxGeometry relative="1" as="geometry">
            <mxPoint x="326.35533905932766" y="642.6446609406728" as="sourcePoint" />
            <Array as="points">
              <mxPoint x="371" y="600" />
            </Array>
          </mxGeometry>
        </mxCell>
        <mxCell id="749NMIYykoAvZRzDqlqD-50" value="" style="pointerEvents=1;verticalLabelPosition=bottom;shadow=0;dashed=0;align=center;html=1;verticalAlign=top;shape=mxgraph.electrical.resistors.memristor_2;rotation=45;strokeWidth=3;" parent="1" vertex="1">
          <mxGeometry x="401" y="666" width="100" height="24" as="geometry" />
        </mxCell>
        <mxCell id="749NMIYykoAvZRzDqlqD-51" style="rounded=0;orthogonalLoop=1;jettySize=auto;html=1;exitX=1;exitY=0.5;exitDx=0;exitDy=0;exitPerimeter=0;entryX=0;entryY=0.5;entryDx=0;entryDy=0;entryPerimeter=0;endArrow=none;endFill=0;strokeWidth=3;" parent="1" source="749NMIYykoAvZRzDqlqD-75" target="749NMIYykoAvZRzDqlqD-74" edge="1">
          <mxGeometry relative="1" as="geometry">
            <mxPoint x="326.35533905932766" y="875.3553390593277" as="sourcePoint" />
            <mxPoint x="415.64466094067257" y="875.3553390593277" as="targetPoint" />
            <Array as="points">
              <mxPoint x="371" y="920" />
            </Array>
          </mxGeometry>
        </mxCell>
        <mxCell id="749NMIYykoAvZRzDqlqD-52" style="rounded=0;orthogonalLoop=1;jettySize=auto;html=1;exitX=1;exitY=0.5;exitDx=0;exitDy=0;exitPerimeter=0;entryX=1;entryY=0.5;entryDx=0;entryDy=0;entryPerimeter=0;endArrow=none;endFill=0;strokeWidth=3;" parent="1" source="749NMIYykoAvZRzDqlqD-74" target="749NMIYykoAvZRzDqlqD-50" edge="1">
          <mxGeometry relative="1" as="geometry">
            <mxPoint x="486.35533905932766" y="804.6446609406726" as="sourcePoint" />
            <mxPoint x="426" y="885" as="targetPoint" />
            <Array as="points">
              <mxPoint x="531" y="760" />
            </Array>
          </mxGeometry>
        </mxCell>
        <mxCell id="749NMIYykoAvZRzDqlqD-53" style="rounded=0;orthogonalLoop=1;jettySize=auto;html=1;exitX=0;exitY=0.5;exitDx=0;exitDy=0;exitPerimeter=0;entryX=0;entryY=0.5;entryDx=0;entryDy=0;entryPerimeter=0;endArrow=none;endFill=0;strokeWidth=3;" parent="1" source="749NMIYykoAvZRzDqlqD-75" target="749NMIYykoAvZRzDqlqD-73" edge="1">
          <mxGeometry relative="1" as="geometry">
            <mxPoint x="255.64466094067257" y="804.6446609406726" as="sourcePoint" />
            <mxPoint x="255.64466094067257" y="713.3553390593274" as="targetPoint" />
            <Array as="points">
              <mxPoint x="211" y="760" />
            </Array>
          </mxGeometry>
        </mxCell>
        <mxCell id="749NMIYykoAvZRzDqlqD-54" style="edgeStyle=orthogonalEdgeStyle;rounded=0;orthogonalLoop=1;jettySize=auto;html=1;exitX=1;exitY=0.5;exitDx=0;exitDy=0;endArrow=none;endFill=0;exitPerimeter=0;strokeWidth=3;" parent="1" source="749NMIYykoAvZRzDqlqD-60" edge="1">
          <mxGeometry relative="1" as="geometry">
            <mxPoint x="371" y="600" as="targetPoint" />
            <Array as="points">
              <mxPoint x="100" y="600" />
            </Array>
          </mxGeometry>
        </mxCell>
        <mxCell id="749NMIYykoAvZRzDqlqD-55" style="edgeStyle=orthogonalEdgeStyle;rounded=0;orthogonalLoop=1;jettySize=auto;html=1;exitX=0;exitY=0.5;exitDx=0;exitDy=0;endArrow=none;endFill=0;exitPerimeter=0;strokeWidth=3;" parent="1" source="749NMIYykoAvZRzDqlqD-60" edge="1">
          <mxGeometry relative="1" as="geometry">
            <mxPoint x="370" y="920" as="targetPoint" />
            <mxPoint x="112" y="920" as="sourcePoint" />
            <Array as="points">
              <mxPoint x="100" y="920" />
            </Array>
          </mxGeometry>
        </mxCell>
        <mxCell id="749NMIYykoAvZRzDqlqD-56" style="edgeStyle=orthogonalEdgeStyle;rounded=0;orthogonalLoop=1;jettySize=auto;html=1;exitX=0;exitY=0.5;exitDx=0;exitDy=0;endArrow=none;endFill=0;strokeWidth=3;" parent="1" source="749NMIYykoAvZRzDqlqD-57" edge="1">
          <mxGeometry relative="1" as="geometry">
            <mxPoint x="211" y="760" as="targetPoint" />
          </mxGeometry>
        </mxCell>
        <mxCell id="749NMIYykoAvZRzDqlqD-57" value="" style="ellipse;whiteSpace=wrap;html=1;aspect=fixed;strokeWidth=3;" parent="1" vertex="1">
          <mxGeometry x="601" y="550" width="24" height="24" as="geometry" />
        </mxCell>
        <mxCell id="749NMIYykoAvZRzDqlqD-58" style="edgeStyle=orthogonalEdgeStyle;rounded=0;orthogonalLoop=1;jettySize=auto;html=1;exitX=0;exitY=0.5;exitDx=0;exitDy=0;endArrow=none;endFill=0;strokeWidth=3;" parent="1" source="749NMIYykoAvZRzDqlqD-59" edge="1">
          <mxGeometry relative="1" as="geometry">
            <mxPoint x="532" y="760" as="targetPoint" />
          </mxGeometry>
        </mxCell>
        <mxCell id="749NMIYykoAvZRzDqlqD-59" value="" style="ellipse;whiteSpace=wrap;html=1;aspect=fixed;strokeWidth=3;" parent="1" vertex="1">
          <mxGeometry x="602" y="748" width="24" height="24" as="geometry" />
        </mxCell>
        <mxCell id="749NMIYykoAvZRzDqlqD-60" value="" style="verticalLabelPosition=bottom;shadow=0;dashed=0;align=center;fillColor=strokeColor;html=1;verticalAlign=top;strokeWidth=3;shape=mxgraph.electrical.miscellaneous.monocell_battery;rotation=-90;" parent="1" vertex="1">
          <mxGeometry x="50" y="730" width="100" height="60" as="geometry" />
        </mxCell>
        <mxCell id="749NMIYykoAvZRzDqlqD-61" value="" style="endArrow=blockThin;html=1;rounded=0;strokeWidth=3;endFill=1;endSize=10;" parent="1" edge="1">
          <mxGeometry width="50" height="50" relative="1" as="geometry">
            <mxPoint x="613.58" y="740" as="sourcePoint" />
            <mxPoint x="613.58" y="580" as="targetPoint" />
          </mxGeometry>
        </mxCell>
        <mxCell id="749NMIYykoAvZRzDqlqD-62" value="&lt;span style=&quot;font-size: 20px;&quot;&gt;&lt;b style=&quot;font-size: 20px;&quot;&gt;R1&lt;/b&gt;&lt;/span&gt;" style="text;html=1;strokeColor=none;fillColor=none;align=center;verticalAlign=middle;whiteSpace=wrap;rounded=0;fontSize=20;" parent="1" vertex="1">
          <mxGeometry x="249" y="644" width="40" height="30" as="geometry" />
        </mxCell>
        <mxCell id="749NMIYykoAvZRzDqlqD-63" value="&lt;span style=&quot;font-size: 20px;&quot;&gt;&lt;b style=&quot;font-size: 20px;&quot;&gt;R2&lt;/b&gt;&lt;/span&gt;" style="text;html=1;strokeColor=none;fillColor=none;align=center;verticalAlign=middle;whiteSpace=wrap;rounded=0;fontSize=20;" parent="1" vertex="1">
          <mxGeometry x="249" y="850" width="40" height="30" as="geometry" />
        </mxCell>
        <mxCell id="749NMIYykoAvZRzDqlqD-64" value="&lt;span style=&quot;font-size: 20px;&quot;&gt;&lt;b style=&quot;font-size: 20px;&quot;&gt;R3&lt;/b&gt;&lt;/span&gt;" style="text;html=1;strokeColor=none;fillColor=none;align=center;verticalAlign=middle;whiteSpace=wrap;rounded=0;fontSize=20;" parent="1" vertex="1">
          <mxGeometry x="461" y="850" width="40" height="30" as="geometry" />
        </mxCell>
        <mxCell id="749NMIYykoAvZRzDqlqD-65" value="&lt;b&gt;V&lt;sub&gt;in&lt;/sub&gt;&lt;/b&gt;" style="text;html=1;strokeColor=none;fillColor=none;align=center;verticalAlign=middle;whiteSpace=wrap;rounded=0;fontSize=20;" parent="1" vertex="1">
          <mxGeometry x="110" y="710" width="40" height="48" as="geometry" />
        </mxCell>
        <mxCell id="749NMIYykoAvZRzDqlqD-66" value="&lt;b&gt;V&lt;span style=&quot;font-size: 16.6667px;&quot;&gt;&lt;sub&gt;out&lt;/sub&gt;&lt;/span&gt;&lt;/b&gt;" style="text;html=1;strokeColor=none;fillColor=none;align=center;verticalAlign=middle;whiteSpace=wrap;rounded=0;fontSize=20;" parent="1" vertex="1">
          <mxGeometry x="616" y="644" width="50" height="48" as="geometry" />
        </mxCell>
        <mxCell id="749NMIYykoAvZRzDqlqD-70" value="&lt;span style=&quot;font-size: 20px;&quot;&gt;&lt;b style=&quot;font-size: 20px;&quot;&gt;R4&lt;/b&gt;&lt;/span&gt;" style="text;html=1;strokeColor=none;fillColor=none;align=center;verticalAlign=middle;whiteSpace=wrap;rounded=0;fontSize=20;" parent="1" vertex="1">
          <mxGeometry x="461" y="644" width="40" height="30" as="geometry" />
        </mxCell>
        <mxCell id="749NMIYykoAvZRzDqlqD-73" value="" style="pointerEvents=1;verticalLabelPosition=bottom;shadow=0;dashed=0;align=center;html=1;verticalAlign=top;shape=mxgraph.electrical.resistors.resistor_1;rotation=-45;strokeWidth=3;" parent="1" vertex="1">
          <mxGeometry x="241" y="668" width="100" height="20" as="geometry" />
        </mxCell>
        <mxCell id="749NMIYykoAvZRzDqlqD-74" value="" style="pointerEvents=1;verticalLabelPosition=bottom;shadow=0;dashed=0;align=center;html=1;verticalAlign=top;shape=mxgraph.electrical.resistors.resistor_1;rotation=-45;strokeWidth=3;" parent="1" vertex="1">
          <mxGeometry x="401" y="830" width="100" height="20" as="geometry" />
        </mxCell>
        <mxCell id="749NMIYykoAvZRzDqlqD-75" value="" style="pointerEvents=1;verticalLabelPosition=bottom;shadow=0;dashed=0;align=center;html=1;verticalAlign=top;shape=mxgraph.electrical.resistors.resistor_1;rotation=45;strokeWidth=3;" parent="1" vertex="1">
          <mxGeometry x="241" y="830" width="100" height="20" as="geometry" />
        </mxCell>
        <mxCell id="749NMIYykoAvZRzDqlqD-77" value="" style="verticalLabelPosition=bottom;shadow=0;dashed=0;align=center;html=1;verticalAlign=top;strokeWidth=1;shape=ellipse;fillColor=#000000;" parent="1" vertex="1">
          <mxGeometry x="358" y="110" width="10" height="10" as="geometry" />
        </mxCell>
        <mxCell id="749NMIYykoAvZRzDqlqD-79" value="" style="verticalLabelPosition=bottom;shadow=0;dashed=0;align=center;html=1;verticalAlign=top;strokeWidth=1;shape=ellipse;fillColor=#000000;" parent="1" vertex="1">
          <mxGeometry x="358" y="430" width="10" height="10" as="geometry" />
        </mxCell>
        <mxCell id="749NMIYykoAvZRzDqlqD-80" value="" style="verticalLabelPosition=bottom;shadow=0;dashed=0;align=center;html=1;verticalAlign=top;strokeWidth=1;shape=ellipse;fillColor=#000000;" parent="1" vertex="1">
          <mxGeometry x="199" y="270" width="10" height="10" as="geometry" />
        </mxCell>
        <mxCell id="749NMIYykoAvZRzDqlqD-81" value="" style="verticalLabelPosition=bottom;shadow=0;dashed=0;align=center;html=1;verticalAlign=top;strokeWidth=1;shape=ellipse;fillColor=#000000;" parent="1" vertex="1">
          <mxGeometry x="517" y="270" width="10" height="10" as="geometry" />
        </mxCell>
        <mxCell id="749NMIYykoAvZRzDqlqD-82" value="" style="verticalLabelPosition=bottom;shadow=0;dashed=0;align=center;html=1;verticalAlign=top;strokeWidth=1;shape=ellipse;fillColor=#000000;" parent="1" vertex="1">
          <mxGeometry x="366" y="595" width="10" height="10" as="geometry" />
        </mxCell>
        <mxCell id="749NMIYykoAvZRzDqlqD-83" value="" style="verticalLabelPosition=bottom;shadow=0;dashed=0;align=center;html=1;verticalAlign=top;strokeWidth=1;shape=ellipse;fillColor=#000000;" parent="1" vertex="1">
          <mxGeometry x="525" y="755" width="10" height="10" as="geometry" />
        </mxCell>
        <mxCell id="749NMIYykoAvZRzDqlqD-84" value="" style="verticalLabelPosition=bottom;shadow=0;dashed=0;align=center;html=1;verticalAlign=top;strokeWidth=1;shape=ellipse;fillColor=#000000;" parent="1" vertex="1">
          <mxGeometry x="207" y="755" width="10" height="10" as="geometry" />
        </mxCell>
        <mxCell id="749NMIYykoAvZRzDqlqD-85" value="" style="verticalLabelPosition=bottom;shadow=0;dashed=0;align=center;html=1;verticalAlign=top;strokeWidth=1;shape=ellipse;fillColor=#000000;" parent="1" vertex="1">
          <mxGeometry x="366" y="915" width="10" height="10" as="geometry" />
        </mxCell>
        <mxCell id="749NMIYykoAvZRzDqlqD-86" style="rounded=0;orthogonalLoop=1;jettySize=auto;html=1;exitX=1;exitY=0.5;exitDx=0;exitDy=0;exitPerimeter=0;entryX=0;entryY=0.5;entryDx=0;entryDy=0;entryPerimeter=0;endArrow=none;endFill=0;strokeWidth=3;" parent="1" source="749NMIYykoAvZRzDqlqD-105" target="749NMIYykoAvZRzDqlqD-87" edge="1">
          <mxGeometry relative="1" as="geometry">
            <mxPoint x="1026.3553390593277" y="147.6446609406728" as="sourcePoint" />
            <Array as="points">
              <mxPoint x="1071" y="105" />
            </Array>
          </mxGeometry>
        </mxCell>
        <mxCell id="749NMIYykoAvZRzDqlqD-87" value="" style="pointerEvents=1;verticalLabelPosition=bottom;shadow=0;dashed=0;align=center;html=1;verticalAlign=top;shape=mxgraph.electrical.resistors.memristor_2;rotation=45;strokeWidth=3;" parent="1" vertex="1">
          <mxGeometry x="1101" y="171" width="100" height="24" as="geometry" />
        </mxCell>
        <mxCell id="749NMIYykoAvZRzDqlqD-88" style="rounded=0;orthogonalLoop=1;jettySize=auto;html=1;exitX=1;exitY=0.5;exitDx=0;exitDy=0;exitPerimeter=0;entryX=1;entryY=0.5;entryDx=0;entryDy=0;entryPerimeter=0;endArrow=none;endFill=0;strokeWidth=3;" parent="1" source="749NMIYykoAvZRzDqlqD-107" target="749NMIYykoAvZRzDqlqD-112" edge="1">
          <mxGeometry relative="1" as="geometry">
            <mxPoint x="1026.3553390593277" y="380.35533905932766" as="sourcePoint" />
            <mxPoint x="1115.6446609406726" y="380.35533905932743" as="targetPoint" />
            <Array as="points">
              <mxPoint x="1071" y="425" />
            </Array>
          </mxGeometry>
        </mxCell>
        <mxCell id="749NMIYykoAvZRzDqlqD-89" style="rounded=0;orthogonalLoop=1;jettySize=auto;html=1;exitX=0;exitY=0.5;exitDx=0;exitDy=0;exitPerimeter=0;entryX=1;entryY=0.5;entryDx=0;entryDy=0;entryPerimeter=0;endArrow=none;endFill=0;strokeWidth=3;" parent="1" source="749NMIYykoAvZRzDqlqD-112" target="749NMIYykoAvZRzDqlqD-87" edge="1">
          <mxGeometry relative="1" as="geometry">
            <mxPoint x="1186.3553390593272" y="309.6446609406727" as="sourcePoint" />
            <mxPoint x="1126" y="390" as="targetPoint" />
            <Array as="points">
              <mxPoint x="1231" y="265" />
            </Array>
          </mxGeometry>
        </mxCell>
        <mxCell id="749NMIYykoAvZRzDqlqD-90" style="rounded=0;orthogonalLoop=1;jettySize=auto;html=1;exitX=0;exitY=0.5;exitDx=0;exitDy=0;exitPerimeter=0;entryX=0;entryY=0.5;entryDx=0;entryDy=0;entryPerimeter=0;endArrow=none;endFill=0;strokeWidth=3;" parent="1" source="749NMIYykoAvZRzDqlqD-107" target="749NMIYykoAvZRzDqlqD-105" edge="1">
          <mxGeometry relative="1" as="geometry">
            <mxPoint x="955.6446609406726" y="309.64466094067257" as="sourcePoint" />
            <mxPoint x="955.6446609406726" y="218.35533905932743" as="targetPoint" />
            <Array as="points">
              <mxPoint x="911" y="265" />
            </Array>
          </mxGeometry>
        </mxCell>
        <mxCell id="749NMIYykoAvZRzDqlqD-91" style="edgeStyle=orthogonalEdgeStyle;rounded=0;orthogonalLoop=1;jettySize=auto;html=1;exitX=1;exitY=0.5;exitDx=0;exitDy=0;endArrow=none;endFill=0;exitPerimeter=0;strokeWidth=3;" parent="1" source="749NMIYykoAvZRzDqlqD-97" edge="1">
          <mxGeometry relative="1" as="geometry">
            <mxPoint x="1071" y="105" as="targetPoint" />
            <Array as="points">
              <mxPoint x="800" y="105" />
            </Array>
          </mxGeometry>
        </mxCell>
        <mxCell id="749NMIYykoAvZRzDqlqD-92" style="edgeStyle=orthogonalEdgeStyle;rounded=0;orthogonalLoop=1;jettySize=auto;html=1;exitX=0;exitY=0.5;exitDx=0;exitDy=0;endArrow=none;endFill=0;exitPerimeter=0;strokeWidth=3;" parent="1" source="749NMIYykoAvZRzDqlqD-97" edge="1">
          <mxGeometry relative="1" as="geometry">
            <mxPoint x="1070" y="425" as="targetPoint" />
            <mxPoint x="812" y="425" as="sourcePoint" />
            <Array as="points">
              <mxPoint x="800" y="425" />
            </Array>
          </mxGeometry>
        </mxCell>
        <mxCell id="749NMIYykoAvZRzDqlqD-93" style="edgeStyle=orthogonalEdgeStyle;rounded=0;orthogonalLoop=1;jettySize=auto;html=1;exitX=0;exitY=0.5;exitDx=0;exitDy=0;endArrow=none;endFill=0;strokeWidth=3;" parent="1" source="749NMIYykoAvZRzDqlqD-94" edge="1">
          <mxGeometry relative="1" as="geometry">
            <mxPoint x="911" y="265" as="targetPoint" />
          </mxGeometry>
        </mxCell>
        <mxCell id="749NMIYykoAvZRzDqlqD-94" value="" style="ellipse;whiteSpace=wrap;html=1;aspect=fixed;strokeWidth=3;" parent="1" vertex="1">
          <mxGeometry x="1301" y="55" width="24" height="24" as="geometry" />
        </mxCell>
        <mxCell id="749NMIYykoAvZRzDqlqD-95" style="edgeStyle=orthogonalEdgeStyle;rounded=0;orthogonalLoop=1;jettySize=auto;html=1;exitX=0;exitY=0.5;exitDx=0;exitDy=0;endArrow=none;endFill=0;strokeWidth=3;" parent="1" source="749NMIYykoAvZRzDqlqD-96" edge="1">
          <mxGeometry relative="1" as="geometry">
            <mxPoint x="1232" y="265" as="targetPoint" />
          </mxGeometry>
        </mxCell>
        <mxCell id="749NMIYykoAvZRzDqlqD-96" value="" style="ellipse;whiteSpace=wrap;html=1;aspect=fixed;strokeWidth=3;" parent="1" vertex="1">
          <mxGeometry x="1302" y="253" width="24" height="24" as="geometry" />
        </mxCell>
        <mxCell id="749NMIYykoAvZRzDqlqD-97" value="" style="verticalLabelPosition=bottom;shadow=0;dashed=0;align=center;fillColor=strokeColor;html=1;verticalAlign=top;strokeWidth=3;shape=mxgraph.electrical.miscellaneous.monocell_battery;rotation=-90;" parent="1" vertex="1">
          <mxGeometry x="750" y="235" width="100" height="60" as="geometry" />
        </mxCell>
        <mxCell id="749NMIYykoAvZRzDqlqD-98" value="" style="endArrow=blockThin;html=1;rounded=0;strokeWidth=3;endFill=1;endSize=10;" parent="1" edge="1">
          <mxGeometry width="50" height="50" relative="1" as="geometry">
            <mxPoint x="1313.58" y="245" as="sourcePoint" />
            <mxPoint x="1313.58" y="85" as="targetPoint" />
          </mxGeometry>
        </mxCell>
        <mxCell id="749NMIYykoAvZRzDqlqD-99" value="&lt;span style=&quot;font-size: 20px;&quot;&gt;&lt;b style=&quot;font-size: 20px;&quot;&gt;R1&lt;/b&gt;&lt;/span&gt;" style="text;html=1;strokeColor=none;fillColor=none;align=center;verticalAlign=middle;whiteSpace=wrap;rounded=0;fontSize=20;" parent="1" vertex="1">
          <mxGeometry x="949" y="149" width="40" height="30" as="geometry" />
        </mxCell>
        <mxCell id="749NMIYykoAvZRzDqlqD-100" value="&lt;span style=&quot;font-size: 20px;&quot;&gt;&lt;b style=&quot;font-size: 20px;&quot;&gt;R2&lt;/b&gt;&lt;/span&gt;" style="text;html=1;strokeColor=none;fillColor=none;align=center;verticalAlign=middle;whiteSpace=wrap;rounded=0;fontSize=20;" parent="1" vertex="1">
          <mxGeometry x="949" y="355" width="40" height="30" as="geometry" />
        </mxCell>
        <mxCell id="749NMIYykoAvZRzDqlqD-101" value="&lt;span style=&quot;font-size: 20px;&quot;&gt;&lt;b style=&quot;font-size: 20px;&quot;&gt;R3&lt;/b&gt;&lt;/span&gt;" style="text;html=1;strokeColor=none;fillColor=none;align=center;verticalAlign=middle;whiteSpace=wrap;rounded=0;fontSize=20;" parent="1" vertex="1">
          <mxGeometry x="1161" y="355" width="40" height="30" as="geometry" />
        </mxCell>
        <mxCell id="749NMIYykoAvZRzDqlqD-102" value="&lt;b&gt;V&lt;sub&gt;in&lt;/sub&gt;&lt;/b&gt;" style="text;html=1;strokeColor=none;fillColor=none;align=center;verticalAlign=middle;whiteSpace=wrap;rounded=0;fontSize=20;" parent="1" vertex="1">
          <mxGeometry x="810" y="215" width="40" height="48" as="geometry" />
        </mxCell>
        <mxCell id="749NMIYykoAvZRzDqlqD-103" value="&lt;b&gt;V&lt;span style=&quot;font-size: 16.6667px;&quot;&gt;&lt;sub&gt;out&lt;/sub&gt;&lt;/span&gt;&lt;/b&gt;" style="text;html=1;strokeColor=none;fillColor=none;align=center;verticalAlign=middle;whiteSpace=wrap;rounded=0;fontSize=20;" parent="1" vertex="1">
          <mxGeometry x="1316" y="149" width="50" height="48" as="geometry" />
        </mxCell>
        <mxCell id="749NMIYykoAvZRzDqlqD-104" value="&lt;span style=&quot;font-size: 20px;&quot;&gt;&lt;b style=&quot;font-size: 20px;&quot;&gt;R4&lt;/b&gt;&lt;/span&gt;" style="text;html=1;strokeColor=none;fillColor=none;align=center;verticalAlign=middle;whiteSpace=wrap;rounded=0;fontSize=20;" parent="1" vertex="1">
          <mxGeometry x="1161" y="149" width="40" height="30" as="geometry" />
        </mxCell>
        <mxCell id="749NMIYykoAvZRzDqlqD-105" value="" style="pointerEvents=1;verticalLabelPosition=bottom;shadow=0;dashed=0;align=center;html=1;verticalAlign=top;shape=mxgraph.electrical.resistors.resistor_1;rotation=-45;strokeWidth=3;" parent="1" vertex="1">
          <mxGeometry x="941" y="173" width="100" height="20" as="geometry" />
        </mxCell>
        <mxCell id="749NMIYykoAvZRzDqlqD-107" value="" style="pointerEvents=1;verticalLabelPosition=bottom;shadow=0;dashed=0;align=center;html=1;verticalAlign=top;shape=mxgraph.electrical.resistors.resistor_1;rotation=45;strokeWidth=3;" parent="1" vertex="1">
          <mxGeometry x="941" y="335" width="100" height="20" as="geometry" />
        </mxCell>
        <mxCell id="749NMIYykoAvZRzDqlqD-108" value="" style="verticalLabelPosition=bottom;shadow=0;dashed=0;align=center;html=1;verticalAlign=top;strokeWidth=1;shape=ellipse;fillColor=#000000;" parent="1" vertex="1">
          <mxGeometry x="1066" y="100" width="10" height="10" as="geometry" />
        </mxCell>
        <mxCell id="749NMIYykoAvZRzDqlqD-109" value="" style="verticalLabelPosition=bottom;shadow=0;dashed=0;align=center;html=1;verticalAlign=top;strokeWidth=1;shape=ellipse;fillColor=#000000;" parent="1" vertex="1">
          <mxGeometry x="1225" y="260" width="10" height="10" as="geometry" />
        </mxCell>
        <mxCell id="749NMIYykoAvZRzDqlqD-110" value="" style="verticalLabelPosition=bottom;shadow=0;dashed=0;align=center;html=1;verticalAlign=top;strokeWidth=1;shape=ellipse;fillColor=#000000;" parent="1" vertex="1">
          <mxGeometry x="907" y="260" width="10" height="10" as="geometry" />
        </mxCell>
        <mxCell id="749NMIYykoAvZRzDqlqD-111" value="" style="verticalLabelPosition=bottom;shadow=0;dashed=0;align=center;html=1;verticalAlign=top;strokeWidth=1;shape=ellipse;fillColor=#000000;" parent="1" vertex="1">
          <mxGeometry x="1066" y="420" width="10" height="10" as="geometry" />
        </mxCell>
        <mxCell id="749NMIYykoAvZRzDqlqD-112" value="" style="pointerEvents=1;verticalLabelPosition=bottom;shadow=0;dashed=0;align=center;html=1;verticalAlign=top;shape=mxgraph.electrical.resistors.memristor_2;rotation=-225;strokeWidth=3;" parent="1" vertex="1">
          <mxGeometry x="1101" y="333" width="100" height="24" as="geometry" />
        </mxCell>
        <mxCell id="vbJz7fdbf0ja19nYzZtO-1" style="rounded=0;orthogonalLoop=1;jettySize=auto;html=1;exitX=0;exitY=0.5;exitDx=0;exitDy=0;exitPerimeter=0;entryX=0;entryY=0.5;entryDx=0;entryDy=0;entryPerimeter=0;endArrow=none;endFill=0;strokeWidth=3;" parent="1" source="vbJz7fdbf0ja19nYzZtO-21" target="vbJz7fdbf0ja19nYzZtO-2" edge="1">
          <mxGeometry relative="1" as="geometry">
            <mxPoint x="1426.3553390593274" y="682.6446609406726" as="sourcePoint" />
            <Array as="points">
              <mxPoint x="1471" y="640" />
            </Array>
          </mxGeometry>
        </mxCell>
        <mxCell id="vbJz7fdbf0ja19nYzZtO-2" value="" style="pointerEvents=1;verticalLabelPosition=bottom;shadow=0;dashed=0;align=center;html=1;verticalAlign=top;shape=mxgraph.electrical.resistors.memristor_2;rotation=45;strokeWidth=3;" parent="1" vertex="1">
          <mxGeometry x="1501" y="706" width="100" height="24" as="geometry" />
        </mxCell>
        <mxCell id="vbJz7fdbf0ja19nYzZtO-3" style="rounded=0;orthogonalLoop=1;jettySize=auto;html=1;exitX=1;exitY=0.5;exitDx=0;exitDy=0;exitPerimeter=0;entryX=1;entryY=0.5;entryDx=0;entryDy=0;entryPerimeter=0;endArrow=none;endFill=0;strokeWidth=3;" parent="1" source="vbJz7fdbf0ja19nYzZtO-19" target="vbJz7fdbf0ja19nYzZtO-20" edge="1">
          <mxGeometry relative="1" as="geometry">
            <mxPoint x="1426.3553390593274" y="915.3553390593273" as="sourcePoint" />
            <mxPoint x="1515.6446609406726" y="915.3553390593273" as="targetPoint" />
            <Array as="points">
              <mxPoint x="1471" y="960" />
            </Array>
          </mxGeometry>
        </mxCell>
        <mxCell id="vbJz7fdbf0ja19nYzZtO-4" style="rounded=0;orthogonalLoop=1;jettySize=auto;html=1;exitX=0;exitY=0.5;exitDx=0;exitDy=0;exitPerimeter=0;entryX=1;entryY=0.5;entryDx=0;entryDy=0;entryPerimeter=0;endArrow=none;endFill=0;strokeWidth=3;" parent="1" source="vbJz7fdbf0ja19nYzZtO-20" target="vbJz7fdbf0ja19nYzZtO-2" edge="1">
          <mxGeometry relative="1" as="geometry">
            <mxPoint x="1586.3553390593274" y="844.6446609406727" as="sourcePoint" />
            <mxPoint x="1526" y="925" as="targetPoint" />
            <Array as="points">
              <mxPoint x="1631" y="800" />
            </Array>
          </mxGeometry>
        </mxCell>
        <mxCell id="vbJz7fdbf0ja19nYzZtO-5" style="rounded=0;orthogonalLoop=1;jettySize=auto;html=1;exitX=0;exitY=0.5;exitDx=0;exitDy=0;exitPerimeter=0;entryX=1;entryY=0.5;entryDx=0;entryDy=0;entryPerimeter=0;endArrow=none;endFill=0;strokeWidth=3;" parent="1" source="vbJz7fdbf0ja19nYzZtO-19" target="vbJz7fdbf0ja19nYzZtO-21" edge="1">
          <mxGeometry relative="1" as="geometry">
            <mxPoint x="1355.6446609406726" y="844.6446609406727" as="sourcePoint" />
            <mxPoint x="1355.6446609406726" y="753.3553390593274" as="targetPoint" />
            <Array as="points">
              <mxPoint x="1311" y="800" />
            </Array>
          </mxGeometry>
        </mxCell>
        <mxCell id="vbJz7fdbf0ja19nYzZtO-6" style="edgeStyle=orthogonalEdgeStyle;rounded=0;orthogonalLoop=1;jettySize=auto;html=1;exitX=1;exitY=0.5;exitDx=0;exitDy=0;endArrow=none;endFill=0;strokeWidth=3;" parent="1" source="vbJz7fdbf0ja19nYzZtO-40" edge="1">
          <mxGeometry relative="1" as="geometry">
            <mxPoint x="1471" y="640" as="targetPoint" />
            <Array as="points">
              <mxPoint x="1471" y="607" />
            </Array>
            <mxPoint x="1200" y="750" as="sourcePoint" />
          </mxGeometry>
        </mxCell>
        <mxCell id="vbJz7fdbf0ja19nYzZtO-7" style="edgeStyle=orthogonalEdgeStyle;rounded=0;orthogonalLoop=1;jettySize=auto;html=1;endArrow=none;endFill=0;strokeWidth=3;exitX=1;exitY=0.5;exitDx=0;exitDy=0;" parent="1" source="vbJz7fdbf0ja19nYzZtO-32" edge="1">
          <mxGeometry relative="1" as="geometry">
            <mxPoint x="1471" y="960" as="targetPoint" />
            <mxPoint x="1070" y="960" as="sourcePoint" />
            <Array as="points" />
          </mxGeometry>
        </mxCell>
        <mxCell id="vbJz7fdbf0ja19nYzZtO-8" style="edgeStyle=orthogonalEdgeStyle;rounded=0;orthogonalLoop=1;jettySize=auto;html=1;exitX=0;exitY=0.5;exitDx=0;exitDy=0;endArrow=none;endFill=0;strokeWidth=3;" parent="1" source="vbJz7fdbf0ja19nYzZtO-9" edge="1">
          <mxGeometry relative="1" as="geometry">
            <mxPoint x="1311" y="800" as="targetPoint" />
          </mxGeometry>
        </mxCell>
        <mxCell id="vbJz7fdbf0ja19nYzZtO-9" value="" style="ellipse;whiteSpace=wrap;html=1;aspect=fixed;strokeWidth=3;flipH=1;rotation=-180;" parent="1" vertex="1">
          <mxGeometry x="1050" y="788" width="24" height="24" as="geometry" />
        </mxCell>
        <mxCell id="vbJz7fdbf0ja19nYzZtO-10" style="edgeStyle=orthogonalEdgeStyle;rounded=0;orthogonalLoop=1;jettySize=auto;html=1;endArrow=none;endFill=0;strokeWidth=3;exitX=1;exitY=0.5;exitDx=0;exitDy=0;entryX=1;entryY=0.5;entryDx=0;entryDy=0;" parent="1" source="vbJz7fdbf0ja19nYzZtO-11" target="vbJz7fdbf0ja19nYzZtO-26" edge="1">
          <mxGeometry relative="1" as="geometry">
            <mxPoint x="1632.98" y="802" as="targetPoint" />
            <mxPoint x="1070.98" y="1022" as="sourcePoint" />
            <Array as="points">
              <mxPoint x="1074" y="1080" />
              <mxPoint x="1701" y="1080" />
              <mxPoint x="1701" y="800" />
            </Array>
          </mxGeometry>
        </mxCell>
        <mxCell id="vbJz7fdbf0ja19nYzZtO-11" value="" style="ellipse;whiteSpace=wrap;html=1;aspect=fixed;strokeWidth=3;" parent="1" vertex="1">
          <mxGeometry x="1050" y="1070" width="24" height="24" as="geometry" />
        </mxCell>
        <mxCell id="vbJz7fdbf0ja19nYzZtO-14" value="&lt;b&gt;&lt;i&gt;Strain gauge &lt;/i&gt;de tensÃ£o&lt;/b&gt;" style="text;html=1;strokeColor=none;fillColor=none;align=center;verticalAlign=middle;whiteSpace=wrap;rounded=0;fontSize=20;" parent="1" vertex="1">
          <mxGeometry x="1286.5" y="644" width="109" height="80" as="geometry" />
        </mxCell>
        <mxCell id="vbJz7fdbf0ja19nYzZtO-19" value="" style="pointerEvents=1;verticalLabelPosition=bottom;shadow=0;dashed=0;align=center;html=1;verticalAlign=top;shape=mxgraph.electrical.resistors.memristor_2;rotation=45;strokeWidth=3;" parent="1" vertex="1">
          <mxGeometry x="1341" y="868" width="100" height="24" as="geometry" />
        </mxCell>
        <mxCell id="vbJz7fdbf0ja19nYzZtO-20" value="" style="pointerEvents=1;verticalLabelPosition=bottom;shadow=0;dashed=0;align=center;html=1;verticalAlign=top;shape=mxgraph.electrical.resistors.memristor_2;rotation=-225;strokeWidth=3;" parent="1" vertex="1">
          <mxGeometry x="1501" y="868" width="100" height="24" as="geometry" />
        </mxCell>
        <mxCell id="vbJz7fdbf0ja19nYzZtO-21" value="" style="pointerEvents=1;verticalLabelPosition=bottom;shadow=0;dashed=0;align=center;html=1;verticalAlign=top;shape=mxgraph.electrical.resistors.memristor_2;rotation=-225;strokeWidth=3;" parent="1" vertex="1">
          <mxGeometry x="1341" y="706" width="100" height="24" as="geometry" />
        </mxCell>
        <mxCell id="vbJz7fdbf0ja19nYzZtO-23" value="" style="verticalLabelPosition=bottom;shadow=0;dashed=0;align=center;html=1;verticalAlign=top;strokeWidth=1;shape=ellipse;fillColor=#000000;" parent="1" vertex="1">
          <mxGeometry x="1466" y="635" width="10" height="10" as="geometry" />
        </mxCell>
        <mxCell id="vbJz7fdbf0ja19nYzZtO-24" value="" style="verticalLabelPosition=bottom;shadow=0;dashed=0;align=center;html=1;verticalAlign=top;strokeWidth=1;shape=ellipse;fillColor=#000000;" parent="1" vertex="1">
          <mxGeometry x="1466" y="955" width="10" height="10" as="geometry" />
        </mxCell>
        <mxCell id="vbJz7fdbf0ja19nYzZtO-25" value="" style="verticalLabelPosition=bottom;shadow=0;dashed=0;align=center;html=1;verticalAlign=top;strokeWidth=1;shape=ellipse;fillColor=#000000;" parent="1" vertex="1">
          <mxGeometry x="1307" y="795" width="10" height="10" as="geometry" />
        </mxCell>
        <mxCell id="vbJz7fdbf0ja19nYzZtO-26" value="" style="verticalLabelPosition=bottom;shadow=0;dashed=0;align=center;html=1;verticalAlign=top;strokeWidth=1;shape=ellipse;fillColor=#000000;" parent="1" vertex="1">
          <mxGeometry x="1625" y="795" width="10" height="10" as="geometry" />
        </mxCell>
        <mxCell id="vbJz7fdbf0ja19nYzZtO-27" value="&lt;b&gt;&lt;i&gt;Strain gauge &lt;/i&gt;de tensÃ£o&lt;/b&gt;" style="text;html=1;strokeColor=none;fillColor=none;align=center;verticalAlign=middle;whiteSpace=wrap;rounded=0;fontSize=20;" parent="1" vertex="1">
          <mxGeometry x="1550" y="875" width="109" height="80" as="geometry" />
        </mxCell>
        <mxCell id="vbJz7fdbf0ja19nYzZtO-29" value="&lt;b&gt;&lt;i&gt;Strain gauge &lt;/i&gt;de compressÃ£o&lt;/b&gt;" style="text;html=1;strokeColor=none;fillColor=none;align=center;verticalAlign=middle;whiteSpace=wrap;rounded=0;fontSize=20;" parent="1" vertex="1">
          <mxGeometry x="1575.5" y="635" width="109" height="80" as="geometry" />
        </mxCell>
        <mxCell id="vbJz7fdbf0ja19nYzZtO-30" value="&lt;b&gt;&lt;i&gt;Strain gauge &lt;/i&gt;de compressÃ£o&lt;/b&gt;" style="text;html=1;strokeColor=none;fillColor=none;align=center;verticalAlign=middle;whiteSpace=wrap;rounded=0;fontSize=20;" parent="1" vertex="1">
          <mxGeometry x="1286.5" y="875" width="109" height="80" as="geometry" />
        </mxCell>
        <mxCell id="vbJz7fdbf0ja19nYzZtO-32" value="" style="ellipse;whiteSpace=wrap;html=1;aspect=fixed;strokeWidth=3;" parent="1" vertex="1">
          <mxGeometry x="1050" y="976" width="24" height="24" as="geometry" />
        </mxCell>
        <mxCell id="vbJz7fdbf0ja19nYzZtO-35" style="edgeStyle=orthogonalEdgeStyle;rounded=0;orthogonalLoop=1;jettySize=auto;html=1;exitX=1;exitY=0.5;exitDx=0;exitDy=0;endArrow=none;endFill=0;strokeWidth=3;" parent="1" source="vbJz7fdbf0ja19nYzZtO-34" edge="1">
          <mxGeometry relative="1" as="geometry">
            <mxPoint x="1160" y="990" as="targetPoint" />
          </mxGeometry>
        </mxCell>
        <mxCell id="vbJz7fdbf0ja19nYzZtO-34" value="" style="ellipse;whiteSpace=wrap;html=1;aspect=fixed;strokeWidth=3;" parent="1" vertex="1">
          <mxGeometry x="1050" y="880" width="24" height="24" as="geometry" />
        </mxCell>
        <mxCell id="vbJz7fdbf0ja19nYzZtO-36" value="" style="ellipse;whiteSpace=wrap;html=1;aspect=fixed;strokeWidth=3;" parent="1" vertex="1">
          <mxGeometry x="1050" y="690" width="24" height="24" as="geometry" />
        </mxCell>
        <mxCell id="vbJz7fdbf0ja19nYzZtO-37" style="edgeStyle=orthogonalEdgeStyle;rounded=0;orthogonalLoop=1;jettySize=auto;html=1;exitX=1;exitY=0.5;exitDx=0;exitDy=0;endArrow=none;endFill=0;strokeWidth=3;" parent="1" source="vbJz7fdbf0ja19nYzZtO-36" edge="1">
          <mxGeometry relative="1" as="geometry">
            <mxPoint x="1160" y="800" as="targetPoint" />
          </mxGeometry>
        </mxCell>
        <mxCell id="vbJz7fdbf0ja19nYzZtO-40" value="" style="ellipse;whiteSpace=wrap;html=1;aspect=fixed;strokeWidth=3;" parent="1" vertex="1">
          <mxGeometry x="1050" y="595" width="24" height="24" as="geometry" />
        </mxCell>
        <mxCell id="vbJz7fdbf0ja19nYzZtO-44" style="edgeStyle=orthogonalEdgeStyle;rounded=0;orthogonalLoop=1;jettySize=auto;html=1;exitX=1;exitY=0.5;exitDx=0;exitDy=0;exitPerimeter=0;entryX=1;entryY=1;entryDx=0;entryDy=0;entryPerimeter=0;endArrow=none;endFill=0;strokeWidth=3;" parent="1" source="vbJz7fdbf0ja19nYzZtO-42" target="vbJz7fdbf0ja19nYzZtO-43" edge="1">
          <mxGeometry relative="1" as="geometry">
            <Array as="points">
              <mxPoint x="825" y="981" />
              <mxPoint x="825" y="981" />
            </Array>
          </mxGeometry>
        </mxCell>
        <mxCell id="vbJz7fdbf0ja19nYzZtO-45" style="edgeStyle=orthogonalEdgeStyle;rounded=0;orthogonalLoop=1;jettySize=auto;html=1;exitX=0;exitY=0.5;exitDx=0;exitDy=0;exitPerimeter=0;endArrow=none;endFill=0;strokeWidth=3;" parent="1" source="vbJz7fdbf0ja19nYzZtO-42" edge="1">
          <mxGeometry relative="1" as="geometry">
            <mxPoint x="901" y="1081" as="targetPoint" />
            <Array as="points">
              <mxPoint x="891" y="1081" />
            </Array>
          </mxGeometry>
        </mxCell>
        <mxCell id="vbJz7fdbf0ja19nYzZtO-42" value="" style="pointerEvents=1;verticalLabelPosition=bottom;shadow=0;dashed=0;align=center;html=1;verticalAlign=top;shape=mxgraph.electrical.resistors.resistor_1;strokeWidth=3;rotation=-90;" parent="1" vertex="1">
          <mxGeometry x="762" y="1021" width="100" height="20" as="geometry" />
        </mxCell>
        <mxCell id="vbJz7fdbf0ja19nYzZtO-43" value="" style="pointerEvents=1;verticalLabelPosition=bottom;shadow=0;dashed=0;align=center;html=1;verticalAlign=top;shape=mxgraph.electrical.electro-mechanical.make_contact;flipH=1;strokeWidth=3;" parent="1" vertex="1">
          <mxGeometry x="832" y="965" width="75" height="16" as="geometry" />
        </mxCell>
        <mxCell id="vbJz7fdbf0ja19nYzZtO-47" value="&lt;b&gt;TensÃ£o de excitaÃ§Ã£o&lt;/b&gt;" style="text;html=1;strokeColor=none;fillColor=none;align=center;verticalAlign=middle;whiteSpace=wrap;rounded=0;fontSize=20;" parent="1" vertex="1">
          <mxGeometry x="919.5" y="943.5" width="109" height="80" as="geometry" />
        </mxCell>
        <mxCell id="vbJz7fdbf0ja19nYzZtO-48" value="&lt;b&gt;SaÃ­da&lt;/b&gt;" style="text;html=1;strokeColor=none;fillColor=none;align=center;verticalAlign=middle;whiteSpace=wrap;rounded=0;fontSize=20;" parent="1" vertex="1">
          <mxGeometry x="919.5" y="1037.5" width="109" height="80" as="geometry" />
        </mxCell>
        <mxCell id="vbJz7fdbf0ja19nYzZtO-49" value="&lt;b&gt;Sinal de compensaÃ§Ã£o&lt;/b&gt;" style="text;html=1;strokeColor=none;fillColor=none;align=center;verticalAlign=middle;whiteSpace=wrap;rounded=0;fontSize=20;" parent="1" vertex="1">
          <mxGeometry x="907" y="845.5" width="134" height="80" as="geometry" />
        </mxCell>
        <mxCell id="vbJz7fdbf0ja19nYzZtO-51" value="&lt;b&gt;SaÃ­da&lt;/b&gt;" style="text;html=1;strokeColor=none;fillColor=none;align=center;verticalAlign=middle;whiteSpace=wrap;rounded=0;fontSize=20;" parent="1" vertex="1">
          <mxGeometry x="919.5" y="755.5" width="109" height="80" as="geometry" />
        </mxCell>
        <mxCell id="vbJz7fdbf0ja19nYzZtO-53" value="&lt;b&gt;Sinal de compensaÃ§Ã£o&lt;/b&gt;" style="text;html=1;strokeColor=none;fillColor=none;align=center;verticalAlign=middle;whiteSpace=wrap;rounded=0;fontSize=20;" parent="1" vertex="1">
          <mxGeometry x="907" y="657.5" width="134" height="80" as="geometry" />
        </mxCell>
        <mxCell id="vbJz7fdbf0ja19nYzZtO-54" value="&lt;b&gt;TensÃ£o de excitaÃ§Ã£o&lt;/b&gt;" style="text;html=1;strokeColor=none;fillColor=none;align=center;verticalAlign=middle;whiteSpace=wrap;rounded=0;fontSize=20;" parent="1" vertex="1">
          <mxGeometry x="919.5" y="562.5" width="109" height="80" as="geometry" />
        </mxCell>
        <mxCell id="vbJz7fdbf0ja19nYzZtO-55" value="&lt;b style=&quot;border-color: var(--border-color);&quot;&gt;Resistor de calibraÃ§Ã£o por &lt;i&gt;shunt&lt;/i&gt;&lt;/b&gt;" style="text;html=1;strokeColor=none;fillColor=none;align=center;verticalAlign=middle;whiteSpace=wrap;rounded=0;fontSize=20;" parent="1" vertex="1">
          <mxGeometry x="679" y="991" width="121" height="80" as="geometry" />
        </mxCell>
      </root>
    </mxGraphModel>
  </diagram>
</mxfile>
